# xmcd
#
# Track frame offsets: 
#        150
#        10713
#        21738
#        31488
#        42738
#        53913
#        63363
#        70863
#        81663
#        90513
#        100938
#        113013
#        124488
#        133788
#        143463
#        152913
#        167763
#        179088
#        189813
#        202638
#
# Disc length: 2871 seconds
#
# Revision: 0
# Processed by: cddbd v1.5.2PL0 Copyright (c) Steve Scherf et al.
# Submitted via: ExactAudioCopyFreeDBPlugin 1.0
#
DISCID=1a0b3514
DTITLE=Various Artist - Road Trip – American 60’s Style
DYEAR=1900
DGENRE=Country
TTITLE0=Del Shannon - Runaway-1961
TTITLE1=Roy Orbison - Only the Lonely-1960
TTITLE2=Elvis Presley - (Marie’s the Name) His Latest Flame-1961
TTITLE3=Bobby Vee - Take Good Care of My Baby-1961
TTITLE4=Dinah Washington and Brook Benton - A Rockin’ Good Way-1960
TTITLE5=Eddie Hodges - I’m Gonna Knock on Your Door-1961
TTITLE6=Maurice Williams and the Zodiacs - Stay-1960
TTITLE7=Johnny Kidd and The Pirates - Shakin’ All Over-1960
TTITLE8=Ricky Nelson - It’s Late-1959
TTITLE9=The Everly Brothers - Be Bop a Lula-1960
TTITLE10=Dion and The Belmonts - Runaround Sue-1961
TTITLE11=Elvis Presley - Little Sister-1961
TTITLE12=Bobby Darin - I Found a Million Dollar Baby-1958
TTITLE13=Cliff Richard - Nine Times Out of Ten-1960
TTITLE14=The Ventures - Walk, Don’t Run-1960
TTITLE15=Chuck Berry - Reelin’ and Rockin’-1958
TTITLE16=Freddy Cannon - Way Down Yonder in New Orleans-1960
TTITLE17=Brenda Lee - Sweet Nothin’s-1960
TTITLE18=Patsy Cline - I Fall to Pieces-1960
TTITLE19=Buddy Holly - True Love Ways-1960
EXTD=
EXTT0=
EXTT1=
EXTT2=
EXTT3=
EXTT4=
EXTT5=
EXTT6=
EXTT7=
EXTT8=
EXTT9=
EXTT10=
EXTT11=
EXTT12=
EXTT13=
EXTT14=
EXTT15=
EXTT16=
EXTT17=
EXTT18=
EXTT19=
PLAYORDER=
